<svg xmlns="http://www.w3.org/2000/svg" width="505" height="94" fill="none" xmlns:v="https://vecta.io/nano"><g fill="#000"><path d="M35.016 93.536c-6.315 0-12.075-1.024-17.28-3.072-5.12-2.133-9.259-5.291-12.416-9.472C2.248 76.725.584 71.349.328 64.864h21.248c.341 2.987 1.536 5.675 3.584 8.064 2.133 2.389 5.333 3.584 9.6 3.584 3.669 0 6.4-.811 8.192-2.432 1.877-1.621 2.816-3.755 2.816-6.4 0-1.195-.213-2.304-.64-3.328-.341-1.024-1.067-2.005-2.176-2.944-1.109-1.024-2.816-2.048-5.12-3.072-2.219-1.024-5.205-2.133-8.96-3.328-6.997-2.219-12.459-4.821-16.384-7.808s-6.699-6.187-8.32-9.6c-1.536-3.413-2.304-6.912-2.304-10.496C1.949 21.301 3.4 16.48 6.216 12.64c2.816-3.925 6.571-6.869 11.264-8.832S27.421.864 33.224.864s11.093 1.024 15.872 3.072c4.864 1.963 8.789 4.907 11.776 8.832s4.523 8.789 4.608 14.592H43.72c-.085-2.304-1.067-4.48-2.944-6.528s-4.651-3.072-8.32-3.072c-2.645.085-4.907.853-6.784 2.304-1.792 1.365-2.688 3.328-2.688 5.888 0 2.219.939 4.139 2.816 5.76s4.523 3.115 7.936 4.48c3.499 1.365 7.552 2.816 12.16 4.352 3.499 1.195 6.571 2.603 9.216 4.224 2.731 1.536 4.992 3.371 6.784 5.504 1.792 2.048 3.157 4.395 4.096 7.04s1.408 5.632 1.408 8.96c0 5.461-1.408 10.24-4.224 14.336-2.731 4.096-6.528 7.296-11.392 9.6-4.864 2.219-10.453 3.328-16.768 3.328zm139.044 0c-6.4 0-12.032-1.365-16.896-4.096s-8.704-6.571-11.52-11.52c-2.731-5.035-4.096-10.923-4.096-17.664 0-6.485 1.323-12.203 3.968-17.152 2.645-5.035 6.4-8.96 11.264-11.776 4.864-2.901 10.624-4.352 17.28-4.352 7.509 0 14.08 1.963 19.712 5.888 5.632 3.84 9.429 9.984 11.392 18.432h-21.12c-.853-2.475-2.176-4.309-3.968-5.504-1.707-1.28-3.84-1.92-6.4-1.92-2.816 0-5.12.768-6.912 2.304-1.707 1.536-2.987 3.541-3.84 6.016-.768 2.475-1.152 5.163-1.152 8.064 0 2.816.384 5.504 1.152 8.064.853 2.475 2.133 4.48 3.84 6.016 1.792 1.536 4.096 2.304 6.912 2.304 2.56 0 4.693-.64 6.4-1.92 1.792-1.28 3.115-3.115 3.968-5.504h21.12c-1.195 5.205-3.243 9.6-6.144 13.184s-6.485 6.357-10.752 8.32c-4.181 1.877-8.917 2.816-14.208 2.816z"/><use href="#B"/><path d="M349.992 92l-22.528-63.488h20.864l13.824 45.312 13.696-45.312h20.736L374.056 92h-24.064z"/><use href="#B" x="253.375"/></g><path fill-rule="evenodd" d="M289.999 23c-15.224 0-23.427 1.1-27.725 2.075-3.682.834-5.777 3.929-6.168 7.255a168.21 168.21 0 0 0-1.104 20.056c.085 14.968 8.003 28.961 21.332 36.017 2.386 1.263 4.808 2.397 7.093 3.22 2.257.814 4.53 1.377 6.572 1.377s4.316-.563 6.571-1.377c2.287-.823 4.709-1.957 7.094-3.22 13.329-7.056 21.247-21.05 21.333-36.017l.003-.919c0-8.139-.624-15.027-1.108-19.137-.388-3.324-2.489-6.421-6.167-7.255C313.426 24.1 305.224 23 289.999 23zm-15.821 11.926c2.996-.54 7.896-1.038 15.821-1.038s12.826.498 15.822 1.038c3.749.677 5.865 3.786 6.191 7.114a112.59 112.59 0 0 1 .543 10.982c0 9.038-4.391 17.354-11.713 22.59-1.766 1.263-3.634 2.466-5.42 3.36-1.727.866-3.64 1.584-5.423 1.584s-3.697-.717-5.422-1.582c-1.786-.896-3.654-2.1-5.42-3.362-7.322-5.236-11.714-13.552-11.714-22.59a113.28 113.28 0 0 1 .542-10.982c.328-3.327 2.444-6.437 6.191-7.114m15.823 3.629c-7.751 0-12.356.488-14.994.964-1.255.226-2.204 1.244-2.375 2.979-.343 3.497-.516 7.009-.52 10.523 0 7.495 3.634 14.412 9.762 18.794 1.661 1.189 3.311 2.24 4.797 2.987 1.548.775 2.663 1.086 3.33 1.086s1.783-.311 3.331-1.087c1.487-.747 3.136-1.797 4.797-2.987 6.128-4.379 9.762-11.296 9.762-18.793a108.46 108.46 0 0 0-.52-10.523c-.171-1.733-1.12-2.753-2.375-2.979-2.639-.476-7.243-.964-14.995-.964z" fill="#2a2df2"/><path d="M105.438 26.976c6.315 0 11.862 1.323 16.64 3.969 4.864 2.56 8.661 6.272 11.392 11.136 2.816 4.779 4.224 10.496 4.224 17.152 0 .853-.042 1.792-.128 2.816 0 .939-.086 1.92-.256 2.944h-44.8c.256 3.072.981 5.504 2.176 7.296 1.28 1.792 2.816 3.114 4.608 3.968 1.877.768 3.712 1.152 5.504 1.152 2.475 0 4.566-.512 6.272-1.536s3.029-2.603 3.968-4.736h21.12c-.938 4.011-2.816 7.723-5.632 11.137s-6.357 6.143-10.624 8.191c-4.181 2.048-9.002 3.072-14.464 3.072-5.888 0-11.307-1.237-16.256-3.712-4.949-2.56-8.917-6.315-11.903-11.265s-4.48-11.05-4.48-18.304 1.451-13.354 4.353-18.304 6.826-8.661 11.775-11.136c4.949-2.56 10.454-3.841 16.512-3.841zm-.256 15.872c-3.413 0-6.229 1.024-8.448 3.072-2.219 1.963-3.627 4.651-4.225 8.065h24.832c0-3.499-1.152-6.23-3.456-8.192s-5.206-2.944-8.704-2.944zM426.688 27c6.315 0 11.862 1.323 16.64 3.968 4.864 2.56 8.661 6.272 11.392 11.136 2.816 4.779 4.224 10.496 4.224 17.152a33.84 33.84 0 0 1-.128 2.816c0 .939-.086 1.919-.256 2.943h-44.8c.256 3.072.981 5.504 2.176 7.296 1.28 1.792 2.816 3.115 4.608 3.969 1.877.768 3.712 1.151 5.504 1.151 2.475 0 4.566-.511 6.272-1.535s3.029-2.603 3.968-4.736h21.12c-.938 4.01-2.816 7.722-5.632 11.136s-6.357 6.144-10.624 8.192c-4.181 2.048-9.002 3.071-14.464 3.071-5.888 0-11.307-1.237-16.256-3.712-4.949-2.56-8.917-6.315-11.904-11.264s-4.48-11.05-4.48-18.304 1.451-13.355 4.352-18.305 6.827-8.661 11.776-11.136c4.949-2.56 10.454-3.84 16.512-3.84zm-.256 15.872c-3.414 0-6.229 1.024-8.448 3.072-2.218 1.963-3.627 4.65-4.224 8.064h24.832c0-3.498-1.152-6.229-3.456-8.191s-5.206-2.944-8.704-2.944z" fill="#000"/><defs ><path id="B" d="M211.087 92V28.512h19.712v9.856c2.219-3.243 5.035-5.931 8.448-8.064 3.413-2.219 7.339-3.328 11.776-3.328V47.84h-5.504c-4.949 0-8.661 1.109-11.136 3.328-2.389 2.219-3.584 5.888-3.584 11.008V92h-19.712z"/></defs></svg>